<svg xmlns="http://www.w3.org/2000/svg" xmlns:xlink="http://www.w3.org/1999/xlink" width="300" zoomAndPan="magnify" viewBox="50 150 275 50" height="67" preserveAspectRatio="xMidYMid meet" version="1.0"><defs><g/><clipPath id="d4642ab2d3"><rect x="0" width="107" y="0" height="10"/></clipPath><clipPath id="9a74b51cd1"><path d="M 138.617188 181.144531 L 148.601562 181.144531 L 148.601562 198.945312 L 138.617188 198.945312 Z M 138.617188 181.144531 " clip-rule="nonzero"/></clipPath><clipPath id="1976ef3647"><path d="M 0.617188 0.144531 L 10.601562 0.144531 L 10.601562 17.945312 L 0.617188 17.945312 Z M 0.617188 0.144531 " clip-rule="nonzero"/></clipPath><clipPath id="448c277e50"><rect x="0" width="11" y="0" height="18"/></clipPath><clipPath id="b39bc125c0"><path d="M 143.609375 182.652344 L 156.113281 182.652344 L 156.113281 198.964844 L 143.609375 198.964844 Z M 143.609375 182.652344 " clip-rule="nonzero"/></clipPath><clipPath id="32b777822e"><path d="M 147.832031 182.652344 L 156.113281 182.652344 L 151.890625 198.945312 L 143.609375 198.945312 Z M 147.832031 182.652344 " clip-rule="nonzero"/></clipPath><clipPath id="2b0d9ed1a7"><path d="M 0.609375 0.652344 L 13.113281 0.652344 L 13.113281 16.960938 L 0.609375 16.960938 Z M 0.609375 0.652344 " clip-rule="nonzero"/></clipPath><clipPath id="12496cf6a3"><path d="M 4.832031 0.652344 L 13.113281 0.652344 L 8.890625 16.945312 L 0.609375 16.945312 Z M 4.832031 0.652344 " clip-rule="nonzero"/></clipPath><clipPath id="bda7246e19"><rect x="0" width="14" y="0" height="17"/></clipPath></defs><g fill="#ffffff" fill-opacity="1"><g transform="translate(67.82587, 197.845257)"><g><path d="M 19.921875 0.859375 C 16.492188 0.859375 13.457031 0.132812 10.8125 -1.3125 C 8.164062 -2.757812 6.097656 -4.753906 4.609375 -7.296875 C 3.128906 -9.847656 2.390625 -12.773438 2.390625 -16.078125 C 2.390625 -19.367188 3.128906 -22.273438 4.609375 -24.796875 C 6.097656 -27.328125 8.164062 -29.316406 10.8125 -30.765625 C 13.457031 -32.210938 16.492188 -32.9375 19.921875 -32.9375 C 22.890625 -32.9375 25.585938 -32.394531 28.015625 -31.3125 C 30.441406 -30.238281 32.445312 -28.710938 34.03125 -26.734375 C 35.625 -24.753906 36.664062 -22.441406 37.15625 -19.796875 L 28.234375 -19.796875 C 27.460938 -21.429688 26.363281 -22.707031 24.9375 -23.625 C 23.507812 -24.539062 21.878906 -25 20.046875 -25 C 17.554688 -25 15.515625 -24.171875 13.921875 -22.515625 C 12.335938 -20.867188 11.546875 -18.722656 11.546875 -16.078125 C 11.546875 -13.460938 12.335938 -11.320312 13.921875 -9.65625 C 15.515625 -7.988281 17.554688 -7.15625 20.046875 -7.15625 C 22.003906 -7.15625 23.722656 -7.671875 25.203125 -8.703125 C 26.691406 -9.742188 27.765625 -11.140625 28.421875 -12.890625 L 37.453125 -12.890625 C 36.890625 -10.078125 35.800781 -7.640625 34.1875 -5.578125 C 32.582031 -3.523438 30.554688 -1.9375 28.109375 -0.8125 C 25.660156 0.300781 22.929688 0.859375 19.921875 0.859375 Z M 19.921875 0.859375 "/></g></g></g><g fill="#ffffff" fill-opacity="1"><g transform="translate(101.491971, 197.845257)"><g><path d="M 15.34375 0.609375 C 11.550781 0.609375 8.554688 -0.273438 6.359375 -2.046875 C 4.160156 -3.816406 3.0625 -6.25 3.0625 -9.34375 C 3.0625 -12.320312 4.046875 -14.695312 6.015625 -16.46875 C 7.992188 -18.238281 10.65625 -19.125 14 -19.125 L 25.609375 -19.125 L 25.609375 -20.59375 C 25.609375 -22.1875 25.035156 -23.457031 23.890625 -24.40625 C 22.753906 -25.363281 21.269531 -25.84375 19.4375 -25.84375 C 17.925781 -25.84375 16.640625 -25.492188 15.578125 -24.796875 C 14.523438 -24.109375 13.851562 -23.195312 13.5625 -22.0625 L 4.640625 -22.0625 C 5.210938 -25.5625 6.789062 -28.25 9.375 -30.125 C 11.96875 -32 15.300781 -32.9375 19.375 -32.9375 C 24.175781 -32.9375 27.929688 -31.722656 30.640625 -29.296875 C 33.347656 -26.878906 34.703125 -23.550781 34.703125 -19.3125 L 34.703125 0 L 27.8125 0 L 26.765625 -3.734375 C 23.953125 -0.835938 20.144531 0.609375 15.34375 0.609375 Z M 12.21875 -9.71875 C 12.21875 -8.613281 12.695312 -7.722656 13.65625 -7.046875 C 14.613281 -6.378906 15.890625 -6.046875 17.484375 -6.046875 C 19.796875 -6.046875 21.71875 -6.71875 23.25 -8.0625 C 24.78125 -9.40625 25.585938 -11.160156 25.671875 -13.328125 L 16.859375 -13.328125 C 15.472656 -13.328125 14.351562 -13 13.5 -12.34375 C 12.644531 -11.6875 12.21875 -10.8125 12.21875 -9.71875 Z M 12.21875 -9.71875 "/></g></g></g><g fill="#ffffff" fill-opacity="1"><g transform="translate(134.18045, 197.845257)"><g><path d="M 4.640625 0 L 4.640625 -32.078125 L 11.546875 -32.078125 L 12.765625 -27.8125 C 13.828125 -29.3125 15.128906 -30.394531 16.671875 -31.0625 C 18.222656 -31.738281 20.179688 -32.078125 22.546875 -32.078125 L 26.03125 -32.078125 L 26.03125 -23.65625 L 22.484375 -23.65625 C 19.835938 -23.65625 17.75 -22.941406 16.21875 -21.515625 C 14.695312 -20.085938 13.9375 -17.640625 13.9375 -14.171875 L 13.9375 0 Z M 4.640625 0 "/></g></g></g><g fill="#ffffff" fill-opacity="1"><g transform="translate(156.237253, 197.845257)"><g><path d="M 18.703125 0.859375 C 15.523438 0.859375 12.710938 0.132812 10.265625 -1.3125 C 7.816406 -2.757812 5.890625 -4.753906 4.484375 -7.296875 C 3.085938 -9.847656 2.390625 -12.773438 2.390625 -16.078125 C 2.390625 -19.367188 3.085938 -22.273438 4.484375 -24.796875 C 5.890625 -27.328125 7.816406 -29.316406 10.265625 -30.765625 C 12.710938 -32.210938 15.523438 -32.9375 18.703125 -32.9375 C 20.691406 -32.9375 22.539062 -32.640625 24.25 -32.046875 C 25.96875 -31.460938 27.519531 -30.640625 28.90625 -29.578125 L 28.90625 -45.21875 L 38.1875 -45.21875 L 38.1875 0 L 31.28125 0 L 30.1875 -3.671875 C 28.757812 -2.242188 27.066406 -1.128906 25.109375 -0.328125 C 23.160156 0.460938 21.023438 0.859375 18.703125 0.859375 Z M 11.546875 -16.078125 C 11.546875 -13.460938 12.367188 -11.320312 14.015625 -9.65625 C 15.671875 -7.988281 17.800781 -7.15625 20.40625 -7.15625 C 23.019531 -7.15625 25.140625 -7.988281 26.765625 -9.65625 C 28.390625 -11.320312 29.203125 -13.460938 29.203125 -16.078125 C 29.203125 -18.679688 28.390625 -20.816406 26.765625 -22.484375 C 25.140625 -24.160156 23.019531 -25 20.40625 -25 C 17.800781 -25 15.671875 -24.160156 14.015625 -22.484375 C 12.367188 -20.816406 11.546875 -18.679688 11.546875 -16.078125 Z M 11.546875 -16.078125 "/></g></g></g><g fill="#ffffff" fill-opacity="1"><g transform="translate(193.019545, 197.845257)"><g><path d="M 15.34375 0.609375 C 11.550781 0.609375 8.554688 -0.273438 6.359375 -2.046875 C 4.160156 -3.816406 3.0625 -6.25 3.0625 -9.34375 C 3.0625 -12.320312 4.046875 -14.695312 6.015625 -16.46875 C 7.992188 -18.238281 10.65625 -19.125 14 -19.125 L 25.609375 -19.125 L 25.609375 -20.59375 C 25.609375 -22.1875 25.035156 -23.457031 23.890625 -24.40625 C 22.753906 -25.363281 21.269531 -25.84375 19.4375 -25.84375 C 17.925781 -25.84375 16.640625 -25.492188 15.578125 -24.796875 C 14.523438 -24.109375 13.851562 -23.195312 13.5625 -22.0625 L 4.640625 -22.0625 C 5.210938 -25.5625 6.789062 -28.25 9.375 -30.125 C 11.96875 -32 15.300781 -32.9375 19.375 -32.9375 C 24.175781 -32.9375 27.929688 -31.722656 30.640625 -29.296875 C 33.347656 -26.878906 34.703125 -23.550781 34.703125 -19.3125 L 34.703125 0 L 27.8125 0 L 26.765625 -3.734375 C 23.953125 -0.835938 20.144531 0.609375 15.34375 0.609375 Z M 12.21875 -9.71875 C 12.21875 -8.613281 12.695312 -7.722656 13.65625 -7.046875 C 14.613281 -6.378906 15.890625 -6.046875 17.484375 -6.046875 C 19.796875 -6.046875 21.71875 -6.71875 23.25 -8.0625 C 24.78125 -9.40625 25.585938 -11.160156 25.671875 -13.328125 L 16.859375 -13.328125 C 15.472656 -13.328125 14.351562 -13 13.5 -12.34375 C 12.644531 -11.6875 12.21875 -10.8125 12.21875 -9.71875 Z M 12.21875 -9.71875 "/></g></g></g><g fill="#ffffff" fill-opacity="1"><g transform="translate(225.712582, 197.845257)"><g/></g></g><g fill="#ffffff" fill-opacity="1"><g transform="translate(254.28466, 197.841594)"><g><path d="M 20.40625 0.859375 C 16.863281 0.859375 13.738281 0.144531 11.03125 -1.28125 C 8.320312 -2.707031 6.203125 -4.691406 4.671875 -7.234375 C 3.148438 -9.785156 2.390625 -12.734375 2.390625 -16.078125 C 2.390625 -19.410156 3.148438 -22.335938 4.671875 -24.859375 C 6.203125 -27.390625 8.320312 -29.367188 11.03125 -30.796875 C 13.738281 -32.222656 16.863281 -32.9375 20.40625 -32.9375 C 23.957031 -32.9375 27.085938 -32.222656 29.796875 -30.796875 C 32.503906 -29.367188 34.609375 -27.390625 36.109375 -24.859375 C 37.617188 -22.335938 38.375 -19.410156 38.375 -16.078125 C 38.375 -12.734375 37.617188 -9.785156 36.109375 -7.234375 C 34.609375 -4.691406 32.503906 -2.707031 29.796875 -1.28125 C 27.085938 0.144531 23.957031 0.859375 20.40625 0.859375 Z M 11.546875 -16.078125 C 11.546875 -13.460938 12.367188 -11.320312 14.015625 -9.65625 C 15.671875 -7.988281 17.800781 -7.15625 20.40625 -7.15625 C 23.019531 -7.15625 25.140625 -7.988281 26.765625 -9.65625 C 28.390625 -11.320312 29.203125 -13.460938 29.203125 -16.078125 C 29.203125 -18.722656 28.390625 -20.867188 26.765625 -22.515625 C 25.140625 -24.171875 23.019531 -25 20.40625 -25 C 17.800781 -25 15.671875 -24.171875 14.015625 -22.515625 C 12.367188 -20.867188 11.546875 -18.722656 11.546875 -16.078125 Z M 11.546875 -16.078125 "/></g></g></g><g fill="#ffffff" fill-opacity="1"><g transform="translate(243.178084, 199.833917)"><g><path d="M 4.28125 -1.8125 L -8.203125 -31.359375 L 0.359375 -34.96875 L 12.84375 -5.421875 Z M -13.5 -40.40625 C -14.15625 -41.976562 -14.175781 -43.476562 -13.5625 -44.90625 C -12.957031 -46.34375 -11.847656 -47.398438 -10.234375 -48.078125 C -8.566406 -48.773438 -7.015625 -48.84375 -5.578125 -48.28125 C -4.148438 -47.71875 -3.109375 -46.648438 -2.453125 -45.078125 C -1.785156 -43.503906 -1.742188 -42.003906 -2.328125 -40.578125 C -2.921875 -39.148438 -4.050781 -38.085938 -5.71875 -37.390625 C -7.332031 -36.710938 -8.863281 -36.648438 -10.3125 -37.203125 C -11.769531 -37.765625 -12.832031 -38.832031 -13.5 -40.40625 Z M -13.5 -40.40625 "/></g></g></g><g transform="matrix(1, 0, 0, 1, 136, 208)"><g clip-path="url(#d4642ab2d3)"><g fill="#cc0000" fill-opacity="1"><g transform="translate(1.385293, 7.267273)"><g><path d="M 0.609375 -5.09375 L 1.359375 -5.09375 L 3.078125 -0.859375 L 3.140625 -0.859375 L 4.875 -5.09375 L 5.609375 -5.09375 L 5.609375 0 L 5.03125 0 L 5.03125 -3.875 L 4.984375 -3.875 L 3.390625 0 L 2.828125 0 L 1.25 -3.875 L 1.1875 -3.875 L 1.1875 0 L 0.609375 0 Z M 0.609375 -5.09375 "/></g></g></g><g fill="#cc0000" fill-opacity="1"><g transform="translate(12.325888, 7.267273)"><g><path d="M 0.609375 0 L 0.609375 -5.09375 L 3.6875 -5.09375 L 3.6875 -4.546875 L 1.234375 -4.546875 L 1.234375 -2.828125 L 3.53125 -2.828125 L 3.53125 -2.28125 L 1.234375 -2.28125 L 1.234375 -0.546875 L 3.734375 -0.546875 L 3.734375 0 Z M 0.609375 0 "/></g></g></g><g fill="#cc0000" fill-opacity="1"><g transform="translate(21.069047, 7.267273)"><g><path d="M 4.65625 -5.09375 L 4.65625 0 L 4.0625 0 L 1.28125 -4 L 1.234375 -4 L 1.234375 0 L 0.609375 0 L 0.609375 -5.09375 L 1.21875 -5.09375 L 4 -1.078125 L 4.046875 -1.078125 L 4.046875 -5.09375 Z M 4.65625 -5.09375 "/></g></g></g><g fill="#cc0000" fill-opacity="1"><g transform="translate(30.896011, 7.267273)"><g><path d="M 3.953125 -5.09375 L 4.578125 -5.09375 L 4.578125 -1.71875 C 4.578125 -1.332031 4.484375 -1.003906 4.296875 -0.734375 C 4.117188 -0.472656 3.878906 -0.269531 3.578125 -0.125 C 3.273438 0.0195312 2.945312 0.09375 2.59375 0.09375 C 2.238281 0.09375 1.910156 0.0195312 1.609375 -0.125 C 1.304688 -0.269531 1.0625 -0.472656 0.875 -0.734375 C 0.695312 -1.003906 0.609375 -1.332031 0.609375 -1.71875 L 0.609375 -5.09375 L 1.234375 -5.09375 L 1.234375 -1.71875 C 1.234375 -1.457031 1.296875 -1.234375 1.421875 -1.046875 C 1.546875 -0.859375 1.710938 -0.71875 1.921875 -0.625 C 2.128906 -0.53125 2.351562 -0.484375 2.59375 -0.484375 C 2.832031 -0.484375 3.054688 -0.53125 3.265625 -0.625 C 3.472656 -0.71875 3.640625 -0.859375 3.765625 -1.046875 C 3.890625 -1.234375 3.953125 -1.457031 3.953125 -1.71875 Z M 3.953125 -5.09375 "/></g></g></g><g fill="#cc0000" fill-opacity="1"><g transform="translate(40.643434, 7.267273)"><g/></g></g><g fill="#cc0000" fill-opacity="1"><g transform="translate(47.16927, 7.267273)"><g><path d="M 2.1875 0 L 0.609375 0 L 0.609375 -5.09375 L 2.25 -5.09375 C 2.75 -5.09375 3.171875 -4.988281 3.515625 -4.78125 C 3.867188 -4.582031 4.140625 -4.289062 4.328125 -3.90625 C 4.515625 -3.53125 4.609375 -3.082031 4.609375 -2.5625 C 4.609375 -2.03125 4.515625 -1.570312 4.328125 -1.1875 C 4.140625 -0.800781 3.863281 -0.503906 3.5 -0.296875 C 3.144531 -0.0976562 2.707031 0 2.1875 0 Z M 1.234375 -0.546875 L 2.140625 -0.546875 C 2.773438 -0.546875 3.242188 -0.722656 3.546875 -1.078125 C 3.859375 -1.441406 4.015625 -1.9375 4.015625 -2.5625 C 4.015625 -3.175781 3.863281 -3.660156 3.5625 -4.015625 C 3.257812 -4.367188 2.8125 -4.546875 2.21875 -4.546875 L 1.234375 -4.546875 Z M 1.234375 -0.546875 "/></g></g></g><g fill="#cc0000" fill-opacity="1"><g transform="translate(56.757603, 7.267273)"><g><path d="M 1.234375 -5.09375 L 1.234375 0 L 0.609375 0 L 0.609375 -5.09375 Z M 1.234375 -5.09375 "/></g></g></g><g fill="#cc0000" fill-opacity="1"><g transform="translate(63.164128, 7.267273)"><g><path d="M 4.09375 -3.5 C 3.988281 -3.832031 3.8125 -4.09375 3.5625 -4.28125 C 3.320312 -4.476562 3.015625 -4.578125 2.640625 -4.578125 C 2.335938 -4.578125 2.0625 -4.5 1.8125 -4.34375 C 1.570312 -4.1875 1.378906 -3.957031 1.234375 -3.65625 C 1.085938 -3.351562 1.015625 -2.984375 1.015625 -2.546875 C 1.015625 -2.109375 1.085938 -1.734375 1.234375 -1.421875 C 1.378906 -1.117188 1.578125 -0.890625 1.828125 -0.734375 C 2.085938 -0.578125 2.375 -0.5 2.6875 -0.5 C 2.96875 -0.5 3.21875 -0.5625 3.4375 -0.6875 C 3.664062 -0.8125 3.84375 -0.984375 3.96875 -1.203125 C 4.09375 -1.429688 4.160156 -1.695312 4.171875 -2 L 2.828125 -2 L 2.828125 -2.546875 L 4.765625 -2.546875 L 4.765625 -2 C 4.765625 -1.582031 4.675781 -1.21875 4.5 -0.90625 C 4.320312 -0.59375 4.078125 -0.351562 3.765625 -0.1875 C 3.453125 -0.0195312 3.09375 0.0625 2.6875 0.0625 C 2.238281 0.0625 1.84375 -0.0390625 1.5 -0.25 C 1.15625 -0.457031 0.890625 -0.753906 0.703125 -1.140625 C 0.515625 -1.535156 0.421875 -2.003906 0.421875 -2.546875 C 0.421875 -3.078125 0.515625 -3.539062 0.703125 -3.9375 C 0.890625 -4.332031 1.148438 -4.632812 1.484375 -4.84375 C 1.828125 -5.050781 2.210938 -5.15625 2.640625 -5.15625 C 3.003906 -5.15625 3.332031 -5.082031 3.625 -4.9375 C 3.914062 -4.800781 4.15625 -4.609375 4.34375 -4.359375 C 4.539062 -4.109375 4.671875 -3.820312 4.734375 -3.5 Z M 4.09375 -3.5 "/></g></g></g><g fill="#cc0000" fill-opacity="1"><g transform="translate(72.921494, 7.267273)"><g><path d="M 1.234375 -5.09375 L 1.234375 0 L 0.609375 0 L 0.609375 -5.09375 Z M 1.234375 -5.09375 "/></g></g></g><g fill="#cc0000" fill-opacity="1"><g transform="translate(79.328019, 7.267273)"><g><path d="M 0.34375 -4.546875 L 0.34375 -5.09375 L 4.15625 -5.09375 L 4.15625 -4.546875 L 2.5625 -4.546875 L 2.5625 0 L 1.9375 0 L 1.9375 -4.546875 Z M 0.34375 -4.546875 "/></g></g></g><g fill="#cc0000" fill-opacity="1"><g transform="translate(88.379416, 7.267273)"><g><path d="M 0.828125 0 L 0.171875 0 L 2.046875 -5.09375 L 2.6875 -5.09375 L 4.546875 0 L 3.90625 0 L 3.390625 -1.4375 L 1.34375 -1.4375 Z M 1.53125 -1.984375 L 3.203125 -1.984375 L 2.390625 -4.28125 L 2.34375 -4.28125 Z M 1.53125 -1.984375 "/></g></g></g><g fill="#cc0000" fill-opacity="1"><g transform="translate(97.669453, 7.267273)"><g><path d="M 0.609375 0 L 0.609375 -5.09375 L 1.234375 -5.09375 L 1.234375 -0.546875 L 3.59375 -0.546875 L 3.59375 0 Z M 0.609375 0 "/></g></g></g></g></g><g clip-path="url(#9a74b51cd1)"><g transform="matrix(1, 0, 0, 1, 138, 181)"><g clip-path="url(#448c277e50)"><g clip-path="url(#1976ef3647)"><path fill="#1e1c1c" d="M 0.617188 0.144531 L 10.601562 0.144531 L 10.601562 17.929688 L 0.617188 17.929688 Z M 0.617188 0.144531 " fill-opacity="1" fill-rule="nonzero"/></g></g></g></g><g clip-path="url(#b39bc125c0)"><g clip-path="url(#32b777822e)"><g transform="matrix(1, 0, 0, 1, 143, 182)"><g clip-path="url(#bda7246e19)"><g clip-path="url(#2b0d9ed1a7)"><g clip-path="url(#12496cf6a3)"><path fill="#ff3131" d="M 0.609375 0.652344 L 13.113281 0.652344 L 13.113281 16.964844 L 0.609375 16.964844 Z M 0.609375 0.652344 " fill-opacity="1" fill-rule="nonzero"/></g></g></g></g></g></g></svg>