<svg xmlns="http://www.w3.org/2000/svg" xmlns:xlink="http://www.w3.org/1999/xlink" width="300" zoomAndPan="magnify" viewBox="50 150 275 50" height="67" preserveAspectRatio="xMidYMid meet" version="1.0"><defs><g/><clipPath id="6b0b79b39d"><path d="M 138.617188 181.144531 L 148.601562 181.144531 L 148.601562 198.945312 L 138.617188 198.945312 Z M 138.617188 181.144531 " clip-rule="nonzero"/></clipPath><clipPath id="f5aefd79cb"><path d="M 0.617188 0.144531 L 10.601562 0.144531 L 10.601562 17.945312 L 0.617188 17.945312 Z M 0.617188 0.144531 " clip-rule="nonzero"/></clipPath><clipPath id="2d8fde44c5"><rect x="0" width="11" y="0" height="18"/></clipPath><clipPath id="94fd925526"><path d="M 143.609375 182.652344 L 156.113281 182.652344 L 156.113281 198.964844 L 143.609375 198.964844 Z M 143.609375 182.652344 " clip-rule="nonzero"/></clipPath><clipPath id="b1b00e3c20"><path d="M 147.832031 182.652344 L 156.113281 182.652344 L 151.890625 198.945312 L 143.609375 198.945312 Z M 147.832031 182.652344 " clip-rule="nonzero"/></clipPath><clipPath id="000f929b31"><path d="M 0.609375 0.652344 L 13.113281 0.652344 L 13.113281 16.960938 L 0.609375 16.960938 Z M 0.609375 0.652344 " clip-rule="nonzero"/></clipPath><clipPath id="844f32def5"><path d="M 4.832031 0.652344 L 13.113281 0.652344 L 8.890625 16.945312 L 0.609375 16.945312 Z M 4.832031 0.652344 " clip-rule="nonzero"/></clipPath><clipPath id="45c1eca9b6"><rect x="0" width="14" y="0" height="17"/></clipPath></defs><g fill="#000000" fill-opacity="1"><g transform="translate(67.82587, 197.8453)"><g><path d="M 19.921875 0.859375 C 16.492188 0.859375 13.457031 0.132812 10.8125 -1.3125 C 8.164062 -2.757812 6.097656 -4.753906 4.609375 -7.296875 C 3.128906 -9.847656 2.390625 -12.773438 2.390625 -16.078125 C 2.390625 -19.367188 3.128906 -22.273438 4.609375 -24.796875 C 6.097656 -27.328125 8.164062 -29.316406 10.8125 -30.765625 C 13.457031 -32.210938 16.492188 -32.9375 19.921875 -32.9375 C 22.890625 -32.9375 25.585938 -32.394531 28.015625 -31.3125 C 30.441406 -30.238281 32.445312 -28.710938 34.03125 -26.734375 C 35.625 -24.753906 36.664062 -22.441406 37.15625 -19.796875 L 28.234375 -19.796875 C 27.460938 -21.429688 26.363281 -22.707031 24.9375 -23.625 C 23.507812 -24.539062 21.878906 -25 20.046875 -25 C 17.554688 -25 15.515625 -24.171875 13.921875 -22.515625 C 12.335938 -20.867188 11.546875 -18.722656 11.546875 -16.078125 C 11.546875 -13.460938 12.335938 -11.320312 13.921875 -9.65625 C 15.515625 -7.988281 17.554688 -7.15625 20.046875 -7.15625 C 22.003906 -7.15625 23.722656 -7.671875 25.203125 -8.703125 C 26.691406 -9.742188 27.765625 -11.140625 28.421875 -12.890625 L 37.453125 -12.890625 C 36.890625 -10.078125 35.800781 -7.640625 34.1875 -5.578125 C 32.582031 -3.523438 30.554688 -1.9375 28.109375 -0.8125 C 25.660156 0.300781 22.929688 0.859375 19.921875 0.859375 Z M 19.921875 0.859375 "/></g></g></g><g fill="#000000" fill-opacity="1"><g transform="translate(101.491971, 197.8453)"><g><path d="M 15.34375 0.609375 C 11.550781 0.609375 8.554688 -0.273438 6.359375 -2.046875 C 4.160156 -3.816406 3.0625 -6.25 3.0625 -9.34375 C 3.0625 -12.320312 4.046875 -14.695312 6.015625 -16.46875 C 7.992188 -18.238281 10.65625 -19.125 14 -19.125 L 25.609375 -19.125 L 25.609375 -20.59375 C 25.609375 -22.1875 25.035156 -23.457031 23.890625 -24.40625 C 22.753906 -25.363281 21.269531 -25.84375 19.4375 -25.84375 C 17.925781 -25.84375 16.640625 -25.492188 15.578125 -24.796875 C 14.523438 -24.109375 13.851562 -23.195312 13.5625 -22.0625 L 4.640625 -22.0625 C 5.210938 -25.5625 6.789062 -28.25 9.375 -30.125 C 11.96875 -32 15.300781 -32.9375 19.375 -32.9375 C 24.175781 -32.9375 27.929688 -31.722656 30.640625 -29.296875 C 33.347656 -26.878906 34.703125 -23.550781 34.703125 -19.3125 L 34.703125 0 L 27.8125 0 L 26.765625 -3.734375 C 23.953125 -0.835938 20.144531 0.609375 15.34375 0.609375 Z M 12.21875 -9.71875 C 12.21875 -8.613281 12.695312 -7.722656 13.65625 -7.046875 C 14.613281 -6.378906 15.890625 -6.046875 17.484375 -6.046875 C 19.796875 -6.046875 21.71875 -6.71875 23.25 -8.0625 C 24.78125 -9.40625 25.585938 -11.160156 25.671875 -13.328125 L 16.859375 -13.328125 C 15.472656 -13.328125 14.351562 -13 13.5 -12.34375 C 12.644531 -11.6875 12.21875 -10.8125 12.21875 -9.71875 Z M 12.21875 -9.71875 "/></g></g></g><g fill="#000000" fill-opacity="1"><g transform="translate(134.18045, 197.8453)"><g><path d="M 4.640625 0 L 4.640625 -32.078125 L 11.546875 -32.078125 L 12.765625 -27.8125 C 13.828125 -29.3125 15.128906 -30.394531 16.671875 -31.0625 C 18.222656 -31.738281 20.179688 -32.078125 22.546875 -32.078125 L 26.03125 -32.078125 L 26.03125 -23.65625 L 22.484375 -23.65625 C 19.835938 -23.65625 17.75 -22.941406 16.21875 -21.515625 C 14.695312 -20.085938 13.9375 -17.640625 13.9375 -14.171875 L 13.9375 0 Z M 4.640625 0 "/></g></g></g><g fill="#000000" fill-opacity="1"><g transform="translate(156.237253, 197.8453)"><g><path d="M 18.703125 0.859375 C 15.523438 0.859375 12.710938 0.132812 10.265625 -1.3125 C 7.816406 -2.757812 5.890625 -4.753906 4.484375 -7.296875 C 3.085938 -9.847656 2.390625 -12.773438 2.390625 -16.078125 C 2.390625 -19.367188 3.085938 -22.273438 4.484375 -24.796875 C 5.890625 -27.328125 7.816406 -29.316406 10.265625 -30.765625 C 12.710938 -32.210938 15.523438 -32.9375 18.703125 -32.9375 C 20.691406 -32.9375 22.539062 -32.640625 24.25 -32.046875 C 25.96875 -31.460938 27.519531 -30.640625 28.90625 -29.578125 L 28.90625 -45.21875 L 38.1875 -45.21875 L 38.1875 0 L 31.28125 0 L 30.1875 -3.671875 C 28.757812 -2.242188 27.066406 -1.128906 25.109375 -0.328125 C 23.160156 0.460938 21.023438 0.859375 18.703125 0.859375 Z M 11.546875 -16.078125 C 11.546875 -13.460938 12.367188 -11.320312 14.015625 -9.65625 C 15.671875 -7.988281 17.800781 -7.15625 20.40625 -7.15625 C 23.019531 -7.15625 25.140625 -7.988281 26.765625 -9.65625 C 28.390625 -11.320312 29.203125 -13.460938 29.203125 -16.078125 C 29.203125 -18.679688 28.390625 -20.816406 26.765625 -22.484375 C 25.140625 -24.160156 23.019531 -25 20.40625 -25 C 17.800781 -25 15.671875 -24.160156 14.015625 -22.484375 C 12.367188 -20.816406 11.546875 -18.679688 11.546875 -16.078125 Z M 11.546875 -16.078125 "/></g></g></g><g fill="#000000" fill-opacity="1"><g transform="translate(193.019545, 197.8453)"><g><path d="M 15.34375 0.609375 C 11.550781 0.609375 8.554688 -0.273438 6.359375 -2.046875 C 4.160156 -3.816406 3.0625 -6.25 3.0625 -9.34375 C 3.0625 -12.320312 4.046875 -14.695312 6.015625 -16.46875 C 7.992188 -18.238281 10.65625 -19.125 14 -19.125 L 25.609375 -19.125 L 25.609375 -20.59375 C 25.609375 -22.1875 25.035156 -23.457031 23.890625 -24.40625 C 22.753906 -25.363281 21.269531 -25.84375 19.4375 -25.84375 C 17.925781 -25.84375 16.640625 -25.492188 15.578125 -24.796875 C 14.523438 -24.109375 13.851562 -23.195312 13.5625 -22.0625 L 4.640625 -22.0625 C 5.210938 -25.5625 6.789062 -28.25 9.375 -30.125 C 11.96875 -32 15.300781 -32.9375 19.375 -32.9375 C 24.175781 -32.9375 27.929688 -31.722656 30.640625 -29.296875 C 33.347656 -26.878906 34.703125 -23.550781 34.703125 -19.3125 L 34.703125 0 L 27.8125 0 L 26.765625 -3.734375 C 23.953125 -0.835938 20.144531 0.609375 15.34375 0.609375 Z M 12.21875 -9.71875 C 12.21875 -8.613281 12.695312 -7.722656 13.65625 -7.046875 C 14.613281 -6.378906 15.890625 -6.046875 17.484375 -6.046875 C 19.796875 -6.046875 21.71875 -6.71875 23.25 -8.0625 C 24.78125 -9.40625 25.585938 -11.160156 25.671875 -13.328125 L 16.859375 -13.328125 C 15.472656 -13.328125 14.351562 -13 13.5 -12.34375 C 12.644531 -11.6875 12.21875 -10.8125 12.21875 -9.71875 Z M 12.21875 -9.71875 "/></g></g></g><g fill="#000000" fill-opacity="1"><g transform="translate(225.712582, 197.8453)"><g/></g></g><g fill="#000000" fill-opacity="1"><g transform="translate(254.28466, 197.841549)"><g><path d="M 20.40625 0.859375 C 16.863281 0.859375 13.738281 0.144531 11.03125 -1.28125 C 8.320312 -2.707031 6.203125 -4.691406 4.671875 -7.234375 C 3.148438 -9.785156 2.390625 -12.734375 2.390625 -16.078125 C 2.390625 -19.410156 3.148438 -22.335938 4.671875 -24.859375 C 6.203125 -27.390625 8.320312 -29.367188 11.03125 -30.796875 C 13.738281 -32.222656 16.863281 -32.9375 20.40625 -32.9375 C 23.957031 -32.9375 27.085938 -32.222656 29.796875 -30.796875 C 32.503906 -29.367188 34.609375 -27.390625 36.109375 -24.859375 C 37.617188 -22.335938 38.375 -19.410156 38.375 -16.078125 C 38.375 -12.734375 37.617188 -9.785156 36.109375 -7.234375 C 34.609375 -4.691406 32.503906 -2.707031 29.796875 -1.28125 C 27.085938 0.144531 23.957031 0.859375 20.40625 0.859375 Z M 11.546875 -16.078125 C 11.546875 -13.460938 12.367188 -11.320312 14.015625 -9.65625 C 15.671875 -7.988281 17.800781 -7.15625 20.40625 -7.15625 C 23.019531 -7.15625 25.140625 -7.988281 26.765625 -9.65625 C 28.390625 -11.320312 29.203125 -13.460938 29.203125 -16.078125 C 29.203125 -18.722656 28.390625 -20.867188 26.765625 -22.515625 C 25.140625 -24.171875 23.019531 -25 20.40625 -25 C 17.800781 -25 15.671875 -24.171875 14.015625 -22.515625 C 12.367188 -20.867188 11.546875 -18.722656 11.546875 -16.078125 Z M 11.546875 -16.078125 "/></g></g></g><g fill="#000000" fill-opacity="1"><g transform="translate(243.178084, 199.833902)"><g><path d="M 4.28125 -1.8125 L -8.203125 -31.359375 L 0.359375 -34.96875 L 12.84375 -5.421875 Z M -13.5 -40.40625 C -14.15625 -41.976562 -14.175781 -43.476562 -13.5625 -44.90625 C -12.957031 -46.34375 -11.847656 -47.398438 -10.234375 -48.078125 C -8.566406 -48.773438 -7.015625 -48.84375 -5.578125 -48.28125 C -4.148438 -47.71875 -3.109375 -46.648438 -2.453125 -45.078125 C -1.785156 -43.503906 -1.742188 -42.003906 -2.328125 -40.578125 C -2.921875 -39.148438 -4.050781 -38.085938 -5.71875 -37.390625 C -7.332031 -36.710938 -8.863281 -36.648438 -10.3125 -37.203125 C -11.769531 -37.765625 -12.832031 -38.832031 -13.5 -40.40625 Z M -13.5 -40.40625 "/></g></g></g><g clip-path="url(#6b0b79b39d)"><g transform="matrix(1, 0, 0, 1, 138, 181)"><g clip-path="url(#2d8fde44c5)"><g clip-path="url(#f5aefd79cb)"><path fill="#ffffff" d="M 0.617188 0.144531 L 10.601562 0.144531 L 10.601562 17.929688 L 0.617188 17.929688 Z M 0.617188 0.144531 " fill-opacity="1" fill-rule="nonzero"/></g></g></g></g><g clip-path="url(#94fd925526)"><g clip-path="url(#b1b00e3c20)"><g transform="matrix(1, 0, 0, 1, 143, 182)"><g clip-path="url(#45c1eca9b6)"><g clip-path="url(#000f929b31)"><g clip-path="url(#844f32def5)"><path fill="#ff3131" d="M 0.609375 0.652344 L 13.113281 0.652344 L 13.113281 16.964844 L 0.609375 16.964844 Z M 0.609375 0.652344 " fill-opacity="1" fill-rule="nonzero"/></g></g></g></g></g></g></svg>